<?xml version="1.0" encoding="utf-8"?>
<!-- Generator: Adobe Illustrator 16.0.0, SVG Export Plug-In . SVG Version: 6.00 Build 0)  -->
<!DOCTYPE svg PUBLIC "-//W3C//DTD SVG 1.1//EN" "http://www.w3.org/Graphics/SVG/1.1/DTD/svg11.dtd">
<svg version="1.1" id="Layer_1" xmlns="http://www.w3.org/2000/svg" xmlns:xlink="http://www.w3.org/1999/xlink" x="0px" y="0px"
	 width="768px" height="503.416px" viewBox="0 260.293 768 503.416" enable-background="new 0 260.293 768 503.416"
	 xml:space="preserve">
<g>
	<g>
		<path d="M570.212,367.729c-0.019,0-505.766-0.001-505.766-0.001l102.333-71.903c8.831-6.204,10.959-18.393,4.755-27.223
			c-6.204-8.829-18.395-10.959-27.224-4.755L18.021,352.58C6.738,360.507,0,373.477,0,387.271c0,13.792,6.738,26.762,18.024,34.69
			l126.287,88.734c3.418,2.401,7.336,3.555,11.217,3.555c6.15,0,12.204-2.894,16.007-8.309c6.204-8.83,4.077-21.02-4.755-27.224
			L64.446,406.814h505.565c87.622,0,158.905,71.284,158.905,158.905s-71.284,158.905-158.905,158.905h-71.159
			c-10.791,0-19.542,8.75-19.542,19.542c0,10.793,8.751,19.542,19.542,19.542h71.159C679.182,763.709,768,674.891,768,565.72
			C768,456.611,679.291,367.838,570.212,367.729z"/>
	</g>
</g>
</svg>
