<?xml version="1.0" encoding="utf-8"?>
<!-- Generator: Adobe Illustrator 16.0.0, SVG Export Plug-In . SVG Version: 6.00 Build 0)  -->
<!DOCTYPE svg PUBLIC "-//W3C//DTD SVG 1.0//EN" "http://www.w3.org/TR/2001/REC-SVG-20010904/DTD/svg10.dtd">
<svg version="1.0" id="Layer_1" xmlns="http://www.w3.org/2000/svg" xmlns:xlink="http://www.w3.org/1999/xlink" x="0px" y="0px"
	 width="403px" height="296.603px" viewBox="0 0 403 296.603" enable-background="new 0 0 403 296.603" xml:space="preserve">
<g>
	<path fill="#D4D4D4" d="M396.112,16.761c3.815,9.566,1.847,20.883-5.912,28.638l-236,235.204c-4.801,4.797-12,8-18.398,8
		c-6.403,0-13.602-3.203-18.403-8L7.801,171.802c-0.344-0.345-0.675-0.695-0.997-1.052c1.298,3.264,3.293,6.348,5.997,9.052
		l109.597,108.801c4.801,4.797,12,8,18.403,8c6.398,0,13.597-3.203,18.398-8l236-235.204
		C405.289,43.315,405.591,27.208,396.112,16.761z"/>
	<path fill="#E9E9E9" d="M117.398,280.603c4.801,4.797,12,8,18.403,8c6.398,0,13.597-3.203,18.398-8l236-235.204
		c7.759-7.755,9.728-19.072,5.912-28.638c-1.301-3.259-3.269-6.316-5.912-8.958c-10.398-10.403-26.398-10.403-36.801,0
		L135.801,225.4l-91.199-90.398c-10.403-10.398-26.403-10.398-36.801,0c-10.059,10.055-10.39,25.345-0.997,35.749
		c0.322,0.356,0.653,0.707,0.997,1.052L117.398,280.603z"/>
</g>
</svg>
