<?xml version="1.0" encoding="iso-8859-1"?>
<!-- Generator: Adobe Illustrator 19.0.0, SVG Export Plug-In . SVG Version: 6.00 Build 0)  -->
<svg version="1.1" id="Capa_1" xmlns="http://www.w3.org/2000/svg" xmlns:xlink="http://www.w3.org/1999/xlink" x="0px" y="0px"
	 viewBox="0 0 512.005 512.005" style="enable-background:new 0 0 512.005 512.005;" xml:space="preserve">
<g>
	<g>
		<path d="M501.339,53.336c-5.909,0-10.667,4.779-10.667,10.667c0,135.275-110.059,245.333-245.333,245.333H36.421l109.781-109.781
			c4.16-4.16,4.16-10.923,0-15.083c-4.16-4.16-10.923-4.16-15.083,0L3.141,312.451c-0.981,0.981-1.771,2.176-2.325,3.477
			c-1.088,2.603-1.088,5.547,0,8.149c0.533,1.323,1.323,2.496,2.325,3.477L131.12,455.533c2.091,2.091,4.821,3.136,7.552,3.136
			s5.461-1.045,7.552-3.115c4.16-4.16,4.16-10.923,0-15.083L36.421,330.669h208.917c147.029,0,266.667-119.616,266.667-266.667
			C512.005,58.115,507.227,53.336,501.339,53.336z"/>
	</g>
</g>
<g>
</g>
<g>
</g>
<g>
</g>
<g>
</g>
<g>
</g>
<g>
</g>
<g>
</g>
<g>
</g>
<g>
</g>
<g>
</g>
<g>
</g>
<g>
</g>
<g>
</g>
<g>
</g>
<g>
</g>
</svg>
