<?xml version="1.0" encoding="utf-8"?>
<!-- Generator: Adobe Illustrator 16.0.0, SVG Export Plug-In . SVG Version: 6.00 Build 0)  -->
<!DOCTYPE svg PUBLIC "-//W3C//DTD SVG 1.1//EN" "http://www.w3.org/Graphics/SVG/1.1/DTD/svg11.dtd">
<svg version="1.1" id="Layer_1" xmlns="http://www.w3.org/2000/svg" xmlns:xlink="http://www.w3.org/1999/xlink" x="0px" y="0px"
	 width="45.75px" height="22.75px" viewBox="0 0 45.75 22.75" enable-background="new 0 0 45.75 22.75" xml:space="preserve">
<g>
	<path fill="#4A4C4C" d="M1.032,2h43.717c0.554,0,1.001-0.448,1.001-1s-0.447-1-1.001-1H1.032c-0.552,0-1,0.448-1,1S0.479,2,1.032,2
		z"/>
	<path fill="#4A4C4C" d="M24.749,10.375H1.032c-0.552,0-1,0.448-1,1c0,0.553,0.448,1,1,1h23.717c0.554,0,1.001-0.447,1.001-1
		C25.75,10.823,25.303,10.375,24.749,10.375z"/>
	<path fill="#4A4C4C" d="M34.749,20.75H1.032c-0.552,0-1,0.447-1,1s0.448,1,1,1h33.717c0.554,0,1.001-0.447,1.001-1
		S35.303,20.75,34.749,20.75z"/>
</g>
</svg>
