<?xml version="1.0" encoding="utf-8"?>
<!-- Generator: Adobe Illustrator 16.0.0, SVG Export Plug-In . SVG Version: 6.00 Build 0)  -->
<!DOCTYPE svg PUBLIC "-//W3C//DTD SVG 1.0//EN" "http://www.w3.org/TR/2001/REC-SVG-20010904/DTD/svg10.dtd">
<svg version="1.0" id="Layer_1" xmlns="http://www.w3.org/2000/svg" xmlns:xlink="http://www.w3.org/1999/xlink" x="0px" y="0px"
	 width="45.75px" height="22.75px" viewBox="0 0 45.75 22.75" enable-background="new 0 0 45.75 22.75" xml:space="preserve">
<g>
	<path d="M45,0H0.75C0.336,0,0,0.336,0,0.75S0.336,1.5,0.75,1.5H45c0.414,0,0.75-0.336,0.75-0.75S45.415,0,45,0z"/>
	<path d="M0.75,12.125H26.5c0.414,0,0.75-0.336,0.75-0.75c0-0.414-0.336-0.75-0.75-0.75H0.75c-0.414,0-0.75,0.336-0.75,0.75
		C0,11.789,0.336,12.125,0.75,12.125z"/>
	<path d="M33.5,21.25H0.75C0.336,21.25,0,21.585,0,22s0.336,0.75,0.75,0.75H33.5c0.414,0,0.75-0.336,0.75-0.75
		S33.915,21.25,33.5,21.25z"/>
</g>
</svg>
