<?xml version="1.0" encoding="utf-8"?>
<!-- Generator: Adobe Illustrator 16.0.0, SVG Export Plug-In . SVG Version: 6.00 Build 0)  -->
<!DOCTYPE svg PUBLIC "-//W3C//DTD SVG 1.1//EN" "http://www.w3.org/Graphics/SVG/1.1/DTD/svg11.dtd">
<svg version="1.1" id="Layer_1" xmlns="http://www.w3.org/2000/svg" xmlns:xlink="http://www.w3.org/1999/xlink" x="0px" y="0px"
	 width="102.074px" height="59.834px" viewBox="0 0 102.074 59.834" enable-background="new 0 0 102.074 59.834"
	 xml:space="preserve">
<g id="Layer_1_1_" display="none">
	<g id="CeHmf2.tif" display="inline">
		
			<image overflow="visible" enable-background="new    " width="320" height="568" id="Layer_0" xlink:href="3A4825B029F1E824.png"  transform="matrix(1.5 0 0 1.5 -189.3262 -14.584)">
		</image>
	</g>
</g>
<g>
	<path fill="#58585A" d="M39.685,30.807c-0.697-0.701-1.835-0.705-2.536-0.008c-0.7,0.696-0.709,1.839-0.012,2.535l8.956,9.022
		c0.697,0.7,1.837,0.704,2.535,0.007h0.004c0.696-0.693,0.704-1.833,0.006-2.534L39.685,30.807z"/>
	<path fill="#58585A" d="M68.326,15.537L54.034,1.25c0-0.001,0-0.001,0-0.004c-0.008-0.005-0.016-0.007-0.023-0.014l-0.517-0.437
		h-0.133C52.667,0.325,51.894,0,51.035,0c-0.853,0-1.63,0.325-2.324,0.795h-0.129c-0.182,0.13-0.357,0.273-0.521,0.437
		c-0.007,0.005-0.015,0.007-0.023,0.014c0,0.002,0,0.002,0,0.004L33.753,15.537c-1.658,1.656-1.658,4.342,0,5.997l14.284,14.288
		c0.802,0.798,1.87,1.241,2.998,1.241c1.133,0,2.197-0.444,2.999-1.241l14.292-14.288C69.977,19.879,69.977,17.193,68.326,15.537z
		 M65.554,18.766L51.266,33.054c-0.078,0.078-0.167,0.093-0.23,0.093c-0.062,0-0.152-0.017-0.23-0.093L36.519,18.766
		c-0.125-0.129-0.125-0.336,0-0.459L50.806,4.019c0.078-0.078,0.167-0.097,0.23-0.097c0.063,0,0.152,0.019,0.23,0.097l14.288,14.288
		C65.682,18.431,65.682,18.638,65.554,18.766z"/>
	<path fill="#58585A" d="M53.168,9.755c-0.568-0.572-1.327-0.884-2.133-0.884c-0.805,0-1.565,0.312-2.134,0.884l-6.643,6.647
		c-1.18,1.176-1.18,3.091,0,4.269l6.643,6.647c0.569,0.568,1.328,0.884,2.134,0.884s1.565-0.315,2.133-0.884l6.648-6.647
		c1.179-1.176,1.179-3.093,0-4.269L53.168,9.755z M51.035,23.914l-5.374-5.377l5.374-5.381l5.381,5.381L51.035,23.914z"/>
</g>
<g>
	<path fill="#868E96" d="M11.209,54.192c1.751,0.756,2.639,1.296,2.639,2.579c0,1.354-0.983,2.158-3.047,2.158
		c-2.194,0-3.357-0.936-3.418-2.603h1.199c0,1.199,0.744,2.171,2.255,2.171c0.983,0,1.812-0.407,1.812-1.427
		c0-0.912-0.647-1.199-2.519-2.063c-1.512-0.695-2.495-1.139-2.495-2.494c0-1.344,0.924-2.159,2.927-2.159
		c2.026,0,3.094,0.84,3.118,2.363h-1.211c0-1.164-0.636-1.907-1.896-1.932c-1.104-0.023-1.751,0.516-1.751,1.392
		C8.823,53.173,9.663,53.533,11.209,54.192z"/>
	<path fill="#868E96" d="M18.16,50.438h1.199v8.396H18.16V50.438z"/>
	<path fill="#868E96" d="M24.099,50.438h1.199v7.928h4.39v0.468h-5.589V50.438z"/>
	<path fill="#868E96" d="M35.697,57.467l3.154-7.028h0.611l-3.694,8.396h-0.659l-3.922-8.396h1.355L35.697,57.467z"/>
	<path fill="#868E96" d="M43.259,50.438h5.937v0.468h-4.737v3.406h4.378v0.468h-4.378v3.586h4.857v0.468h-6.057V50.438z"/>
	<path fill="#868E96" d="M53.298,50.438h2.891c1.847,0,3.082,0.876,3.082,2.339c0,1.199-0.804,1.991-2.087,2.243l2.543,3.813h-1.295
		l-2.483-3.718h-1.451v3.718h-1.199V50.438z M54.498,50.906v3.742h1.403c1.296,0,2.123-0.647,2.123-1.859
		c0-1.211-0.827-1.883-2.135-1.883H54.498z"/>
	<path fill="#868E96" d="M68.926,56.327h-4.054l-1.115,2.507h-0.611l3.693-8.396h0.66l3.922,8.396h-1.355L68.926,56.327z
		 M65.088,55.859h3.634L66.9,51.817L65.088,55.859z"/>
	<path fill="#868E96" d="M75.218,50.438h2.747c2.458,0,4.438,1.691,4.438,4.27c0,2.339-1.619,4.126-4.078,4.126h-3.106V50.438z
		 M76.417,50.906v7.46h1.907c1.571,0,2.83-1.427,2.83-3.646c0-2.327-1.354-3.814-3.189-3.814H76.417z"/>
	<path fill="#868E96" d="M90.432,50.354c2.459,0,4.258,1.823,4.258,4.282c0,2.458-1.799,4.293-4.258,4.293s-4.258-1.835-4.258-4.293
		C86.174,52.178,87.973,50.354,90.432,50.354z M90.432,58.498c1.739,0,3.022-1.595,3.022-3.861c0-2.268-1.283-3.851-3.022-3.851
		c-1.728,0-3.011,1.583-3.011,3.851C87.421,56.903,88.705,58.498,90.432,58.498z"/>
</g>
</svg>
