<?xml version="1.0" encoding="utf-8"?>
<!-- Generator: Adobe Illustrator 16.0.0, SVG Export Plug-In . SVG Version: 6.00 Build 0)  -->
<!DOCTYPE svg PUBLIC "-//W3C//DTD SVG 1.1//EN" "http://www.w3.org/Graphics/SVG/1.1/DTD/svg11.dtd">
<svg version="1.1" id="Layer_1" xmlns="http://www.w3.org/2000/svg" xmlns:xlink="http://www.w3.org/1999/xlink" x="0px" y="0px"
	 width="768px" height="537.089px" viewBox="0 243.455 768 537.089" enable-background="new 0 243.455 768 537.089"
	 xml:space="preserve">
<path fill="#4A4C4C" d="M577.25,399.048c-1.047,0-523.099,0-523.099,0l109.989-123.28c7.132-7.995,6.434-20.257-1.562-27.39
	c-7.992-7.131-20.257-6.435-27.39,1.562L11.316,388.779c-15.088,16.917-15.087,42.423,0.001,59.335L135.19,586.956
	c3.834,4.297,9.146,6.484,14.481,6.484c4.596,0,9.208-1.625,12.909-4.923c7.995-7.133,8.692-19.396,1.562-27.391L54.153,437.846
	c0,0,522.05,0,523.098,0c83.787,0,151.95,68.166,151.95,151.949c0,83.784-68.164,151.95-151.95,151.95h-92.369
	c-10.715,0-19.399,8.687-19.399,19.399s8.685,19.399,19.399,19.399h92.369C682.432,780.544,768,694.975,768,589.795
	C767.998,484.617,682.43,399.048,577.25,399.048z"/>
</svg>
