<?xml version="1.0" encoding="utf-8"?>
<!-- Generator: Adobe Illustrator 16.0.0, SVG Export Plug-In . SVG Version: 6.00 Build 0)  -->
<!DOCTYPE svg PUBLIC "-//W3C//DTD SVG 1.0//EN" "http://www.w3.org/TR/2001/REC-SVG-20010904/DTD/svg10.dtd">
<svg version="1.0" id="Layer_1" xmlns="http://www.w3.org/2000/svg" xmlns:xlink="http://www.w3.org/1999/xlink" x="0px" y="0px"
	 width="81.656px" height="27.5px" viewBox="0 0 81.656 27.5" enable-background="new 0 0 81.656 27.5" xml:space="preserve">
<g>
	<path d="M56.604,3.374H25.062c-0.414,0-0.75,0.336-0.75,0.75s0.336,0.75,0.75,0.75h31.542c0.414,0,0.75-0.336,0.75-0.75
		S57.019,3.374,56.604,3.374z"/>
	<path d="M56.604,23.25H25.062c-0.414,0-0.75,0.336-0.75,0.75s0.336,0.75,0.75,0.75h31.542c0.414,0,0.75-0.336,0.75-0.75
		S57.019,23.25,56.604,23.25z"/>
	<path d="M56.604,13.312H25.062c-0.414,0-0.75,0.336-0.75,0.75c0,0.414,0.336,0.75,0.75,0.75h31.542c0.414,0,0.75-0.336,0.75-0.75
		C57.354,13.647,57.019,13.312,56.604,13.312z"/>
	<path d="M18.001,17.375l-7.563,7.564V4.124c0-0.414-0.336-0.75-0.75-0.75s-0.75,0.336-0.75,0.75v20.815L1.28,17.281
		c-0.293-0.293-0.768-0.293-1.061,0s-0.293,0.768,0,1.061l8.938,8.938c0.069,0.07,0.152,0.125,0.244,0.162
		C9.493,27.479,9.59,27.5,9.688,27.5s0.195-0.021,0.287-0.059c0.092-0.037,0.174-0.092,0.244-0.162l8.844-8.844
		c0.293-0.293,0.293-0.768,0-1.061S18.294,17.082,18.001,17.375z"/>
	<path d="M81.437,9.062l-8.844-8.844c-0.069-0.069-0.151-0.124-0.243-0.162c-0.184-0.076-0.391-0.076-0.574,0
		c-0.092,0.038-0.174,0.092-0.243,0.162l-8.938,8.938c-0.293,0.293-0.293,0.768,0,1.061c0.146,0.146,0.339,0.22,0.53,0.22
		s0.384-0.073,0.53-0.22l7.657-7.657v20.815c0,0.414,0.336,0.75,0.75,0.75s0.75-0.336,0.75-0.75V2.56l7.563,7.563
		c0.146,0.146,0.339,0.22,0.53,0.22s0.384-0.073,0.53-0.22C81.729,9.83,81.729,9.355,81.437,9.062z"/>
</g>
</svg>
