<?xml version="1.0" encoding="utf-8"?>
<!-- Generator: Adobe Illustrator 16.0.0, SVG Export Plug-In . SVG Version: 6.00 Build 0)  -->
<!DOCTYPE svg PUBLIC "-//W3C//DTD SVG 1.0//EN" "http://www.w3.org/TR/2001/REC-SVG-20010904/DTD/svg10.dtd">
<svg version="1.0" xmlns="http://www.w3.org/2000/svg" xmlns:xlink="http://www.w3.org/1999/xlink" x="0px" y="0px" width="7.657px"
	 height="13.14px" viewBox="0 0 7.657 13.14" enable-background="new 0 0 7.657 13.14" xml:space="preserve">
<g id="Layer_1">
	<g>
		<path fill="#A5A7AA" d="M7.469,6.414L6.725,5.671C6.72,5.665,6.712,5.66,6.707,5.656l-5.47-5.472
			c-0.084-0.083-0.221-0.083-0.305,0L0.188,0.929c-0.084,0.083-0.084,0.22,0,0.305l5.334,5.334l-5.334,5.335
			c-0.084,0.085-0.084,0.22,0,0.307l0.744,0.74c0.083,0.087,0.22,0.087,0.305,0l5.47-5.469C6.712,7.475,6.72,7.472,6.725,7.466
			l0.744-0.745c0.042-0.041,0.062-0.098,0.062-0.154S7.511,6.457,7.469,6.414z"/>
		<path fill="#B3B5B7" d="M1.083,13.14c-0.092,0-0.178-0.037-0.242-0.104L0.1,12.298c-0.133-0.139-0.133-0.35,0-0.483l5.246-5.247
			L0.1,1.322C0.035,1.257,0,1.171,0,1.081S0.036,0.904,0.1,0.84l0.743-0.744c0.129-0.128,0.353-0.127,0.48-0.001l6.234,6.23
			c0.064,0.066,0.099,0.151,0.099,0.243c0,0.092-0.037,0.181-0.1,0.243l-6.232,6.228C1.261,13.103,1.175,13.14,1.083,13.14z
			 M1.083,0.247c-0.024,0-0.047,0.009-0.064,0.026L0.276,1.017C0.259,1.034,0.25,1.057,0.25,1.081c0,0.024,0.009,0.047,0.027,0.064
			l5.422,5.423l-5.422,5.423c-0.036,0.037-0.036,0.094,0.001,0.132l0.742,0.738c0.038,0.039,0.093,0.035,0.126,0.002l6.234-6.229
			c0.017-0.016,0.026-0.041,0.026-0.065c0-0.025-0.01-0.049-0.027-0.067L1.148,0.272C1.131,0.256,1.108,0.247,1.083,0.247z"/>
	</g>
</g>
<g id="Layer_2">
</g>
</svg>
