<?xml version="1.0" standalone="no"?>
<!DOCTYPE svg PUBLIC "-//W3C//DTD SVG 20010904//EN"
 "http://www.w3.org/TR/2001/REC-SVG-20010904/DTD/svg10.dtd">
<svg version="1.0" xmlns="http://www.w3.org/2000/svg"
 width="128.000000pt" height="128.000000pt" viewBox="0 0 128.000000 128.000000"
 preserveAspectRatio="xMidYMid meet">
<metadata>
Created by potrace 1.11, written by Peter Selinger 2001-2013
</metadata>
<g transform="translate(0.000000,128.000000) scale(0.100000,-0.100000)"
fill="#000000" stroke="none">
<path d="M585 1238 c-11 -6 -120 -111 -241 -233 -165 -165 -223 -230 -229
-253 -15 -70 -4 -84 242 -330 l234 -234 55 4 56 5 229 229 c242 242 257 262
238 327 -6 22 -75 98 -226 250 -120 120 -230 225 -245 233 -32 17 -85 18 -113
2z m270 -308 l210 -210 -211 -211 -211 -211 -212 211 -211 211 207 209 c115
115 210 210 213 210 3 1 100 -94 215 -209z"/>
<path d="M612 989 c-34 -13 -222 -199 -238 -236 -21 -48 -6 -75 104 -186 109
-110 140 -131 182 -122 32 7 239 210 254 249 16 42 -2 70 -114 181 -61 61
-112 110 -113 111 -17 9 -57 10 -75 3z m106 -346 l-76 -76 -77 75 -77 75 77
78 77 78 76 -76 77 -77 -77 -77z"/>
<path d="M242 368 c-32 -32 -14 -60 130 -205 95 -95 149 -143 164 -143 25 0
54 29 54 55 0 10 -64 82 -142 161 -145 147 -173 165 -206 132z"/>
</g>
</svg>
