<?xml version="1.0" encoding="UTF-8" standalone="no"?>
<!-- Generator: Adobe Illustrator 19.0.0, SVG Export Plug-In . SVG Version: 6.00 Build 0)  -->

<svg
   xmlns:dc="http://purl.org/dc/elements/1.1/"
   xmlns:cc="http://creativecommons.org/ns#"
   xmlns:rdf="http://www.w3.org/1999/02/22-rdf-syntax-ns#"
   xmlns:svg="http://www.w3.org/2000/svg"
   xmlns="http://www.w3.org/2000/svg"
   xmlns:sodipodi="http://sodipodi.sourceforge.net/DTD/sodipodi-0.dtd"
   xmlns:inkscape="http://www.inkscape.org/namespaces/inkscape"
   version="1.1"
   id="Layer_1"
   x="0px"
   y="0px"
   viewBox="0 0 512 512"
   style="enable-background:new 0 0 512 512;"
   xml:space="preserve"
   sodipodi:docname="close-h.svg"
   inkscape:version="0.92.1 r15371"><metadata
   id="metadata4605"><rdf:RDF><cc:Work
       rdf:about=""><dc:format>image/svg+xml</dc:format><dc:type
         rdf:resource="http://purl.org/dc/dcmitype/StillImage" /><dc:title></dc:title></cc:Work></rdf:RDF></metadata><defs
   id="defs4603" /><sodipodi:namedview
   pagecolor="#ffffff"
   bordercolor="#666666"
   borderopacity="1"
   objecttolerance="10"
   gridtolerance="10"
   guidetolerance="10"
   inkscape:pageopacity="0"
   inkscape:pageshadow="2"
   inkscape:window-width="1366"
   inkscape:window-height="715"
   id="namedview4601"
   showgrid="false"
   inkscape:zoom="1.0722656"
   inkscape:cx="256"
   inkscape:cy="247.60656"
   inkscape:window-x="-8"
   inkscape:window-y="-8"
   inkscape:window-maximized="1"
   inkscape:current-layer="Layer_1" />
<g
   id="g4562"
   style="fill:#a46497;fill-opacity:1">
	<g
   id="g4560"
   style="fill:#a46497;fill-opacity:1">
		<path
   d="M505.943,6.058c-8.077-8.077-21.172-8.077-29.249,0L6.058,476.693c-8.077,8.077-8.077,21.172,0,29.249    C10.096,509.982,15.39,512,20.683,512c5.293,0,10.586-2.019,14.625-6.059L505.943,35.306    C514.019,27.23,514.019,14.135,505.943,6.058z"
   id="path4558"
   style="fill:#a46497;fill-opacity:1" />
	</g>
</g>
<g
   id="g4568"
   style="fill:#a46497;fill-opacity:1">
	<g
   id="g4566"
   style="fill:#a46497;fill-opacity:1">
		<path
   d="M505.942,476.694L35.306,6.059c-8.076-8.077-21.172-8.077-29.248,0c-8.077,8.076-8.077,21.171,0,29.248l470.636,470.636    c4.038,4.039,9.332,6.058,14.625,6.058c5.293,0,10.587-2.019,14.624-6.057C514.018,497.866,514.018,484.771,505.942,476.694z"
   id="path4564"
   style="fill:#a46497;fill-opacity:1" />
	</g>
</g>
<g
   id="g4570">
</g>
<g
   id="g4572">
</g>
<g
   id="g4574">
</g>
<g
   id="g4576">
</g>
<g
   id="g4578">
</g>
<g
   id="g4580">
</g>
<g
   id="g4582">
</g>
<g
   id="g4584">
</g>
<g
   id="g4586">
</g>
<g
   id="g4588">
</g>
<g
   id="g4590">
</g>
<g
   id="g4592">
</g>
<g
   id="g4594">
</g>
<g
   id="g4596">
</g>
<g
   id="g4598">
</g>
</svg>