<?xml version="1.0" encoding="utf-8"?>
<!-- Generator: Adobe Illustrator 16.0.0, SVG Export Plug-In . SVG Version: 6.00 Build 0)  -->
<!DOCTYPE svg PUBLIC "-//W3C//DTD SVG 1.0//EN" "http://www.w3.org/TR/2001/REC-SVG-20010904/DTD/svg10.dtd">
<svg version="1.0" id="Layer_1" xmlns="http://www.w3.org/2000/svg" xmlns:xlink="http://www.w3.org/1999/xlink" x="0px" y="0px"
	 width="32.932px" height="32.692px" viewBox="0 0 32.932 32.692" enable-background="new 0 0 32.932 32.692" xml:space="preserve">
<path d="M17.668,16.345L29.067,4.947c0.332-0.332,0.332-0.87,0-1.202c-0.33-0.332-0.871-0.332-1.201,0l-11.4,11.399L5.067,3.745
	c-0.33-0.332-0.871-0.332-1.201,0c-0.332,0.332-0.332,0.87,0,1.202l11.398,11.398L3.866,27.745c-0.332,0.332-0.332,0.87,0,1.202
	c0.164,0.166,0.383,0.249,0.6,0.249c0.219,0,0.436-0.083,0.602-0.249l11.398-11.399l11.4,11.399c0.164,0.166,0.383,0.249,0.6,0.249
	c0.219,0,0.436-0.083,0.602-0.249c0.332-0.332,0.332-0.87,0-1.202L17.668,16.345z"/>
</svg>
