<?xml version="1.0" encoding="utf-8"?>
<!-- Generator: Adobe Illustrator 16.0.0, SVG Export Plug-In . SVG Version: 6.00 Build 0)  -->
<!DOCTYPE svg PUBLIC "-//W3C//DTD SVG 1.0//EN" "http://www.w3.org/TR/2001/REC-SVG-20010904/DTD/svg10.dtd">
<svg version="1.0" id="Layer_2" xmlns="http://www.w3.org/2000/svg" xmlns:xlink="http://www.w3.org/1999/xlink" x="0px" y="0px"
	 width="100.333px" height="106px" viewBox="0 0 100.333 106" enable-background="new 0 0 100.333 106" xml:space="preserve">
<g>
	<path d="M52.333,24.527V0h-4v24.476C41.94,25.373,37,30.863,37,37.5s4.94,12.126,11.333,13.023V106h4V50.472
		c6.23-1.038,11-6.452,11-12.973S58.563,25.565,52.333,24.527z M52.333,46.396c-0.696,0.17-1.419,0.27-2.167,0.27
		c-0.628,0-1.241-0.064-1.833-0.185C44.154,45.629,41,41.926,41,37.5s3.154-8.13,7.333-8.982c0.593-0.121,1.206-0.185,1.833-0.185
		c0.748,0,1.47,0.1,2.167,0.27c4.01,0.978,7,4.59,7,8.897S56.343,45.419,52.333,46.396z"/>
	<path d="M89.333,61.527V0h-4v61.476C78.939,62.373,74,67.863,74,74.5c0,6.636,4.939,12.126,11.333,13.023V106h4V87.473
		c6.23-1.038,11-6.452,11-12.973C100.333,67.979,95.563,62.564,89.333,61.527z M89.333,83.396c-0.696,0.17-1.419,0.27-2.166,0.27
		c-0.628,0-1.241-0.064-1.834-0.185C81.154,82.629,78,78.926,78,74.5c0-4.427,3.154-8.13,7.333-8.982
		c0.593-0.12,1.206-0.185,1.834-0.185c0.747,0,1.47,0.1,2.166,0.27c4.01,0.978,7,4.59,7,8.897
		C96.333,78.807,93.343,82.419,89.333,83.396z"/>
	<path d="M15.333,56.527V0h-4v56.477C4.94,57.373,0,62.863,0,69.5c0,6.636,4.94,12.126,11.333,13.023V106h4V82.473
		c6.23-1.038,11-6.452,11-12.973C26.333,62.979,21.563,57.564,15.333,56.527z M15.333,78.396c-0.696,0.17-1.419,0.27-2.166,0.27
		c-0.628,0-1.241-0.064-1.834-0.185C7.154,77.629,4,73.926,4,69.5c0-4.427,3.154-8.13,7.333-8.982
		c0.593-0.12,1.206-0.185,1.834-0.185c0.747,0,1.47,0.1,2.166,0.27c4.01,0.978,7,4.59,7,8.897
		C22.333,73.807,19.343,77.42,15.333,78.396z"/>
</g>
</svg>
