<?xml version="1.0" encoding="utf-8"?>
<!-- Generator: Adobe Illustrator 16.0.0, SVG Export Plug-In . SVG Version: 6.00 Build 0)  -->
<!DOCTYPE svg PUBLIC "-//W3C//DTD SVG 1.0//EN" "http://www.w3.org/TR/2001/REC-SVG-20010904/DTD/svg10.dtd">
<svg version="1.0" id="Layer_1" xmlns="http://www.w3.org/2000/svg" xmlns:xlink="http://www.w3.org/1999/xlink" x="0px" y="0px"
	 width="33.788px" height="35.25px" viewBox="0 0 33.788 35.25" enable-background="new 0 0 33.788 35.25" xml:space="preserve">
<g>
	<path d="M17.788,7.576V0.75c0-0.414-0.336-0.75-0.75-0.75s-0.75,0.336-0.75,0.75v6.826c-2.262,0.363-4,2.312-4,4.674
		s1.738,4.312,4,4.674V34.5c0,0.414,0.336,0.75,0.75,0.75s0.75-0.336,0.75-0.75V16.924c2.262-0.363,4-2.312,4-4.674
		S20.049,7.938,17.788,7.576z M17.038,15.5c-1.792,0-3.25-1.458-3.25-3.25S15.246,9,17.038,9s3.25,1.458,3.25,3.25
		S18.83,15.5,17.038,15.5z"/>
	<path d="M5.538,17.867V0.75C5.538,0.336,5.202,0,4.788,0s-0.75,0.336-0.75,0.75v17.109C1.758,18.207,0,20.163,0,22.538
		s1.758,4.331,4.038,4.679V34.5c0,0.414,0.336,0.75,0.75,0.75s0.75-0.336,0.75-0.75v-7.291C7.781,26.83,9.5,24.887,9.5,22.538
		S7.781,18.246,5.538,17.867z M4.75,25.788c-1.792,0-3.25-1.458-3.25-3.25s1.458-3.25,3.25-3.25S8,20.746,8,22.538
		S6.542,25.788,4.75,25.788z"/>
	<path d="M33.788,25.538c0-2.362-1.738-4.312-4-4.675V0.75c0-0.414-0.336-0.75-0.75-0.75s-0.75,0.336-0.75,0.75v20.113
		c-2.262,0.363-4,2.312-4,4.675s1.738,4.312,4,4.675V34.5c0,0.414,0.336,0.75,0.75,0.75s0.75-0.336,0.75-0.75v-4.287
		C32.049,29.849,33.788,27.9,33.788,25.538z M29.038,28.788c-1.792,0-3.25-1.458-3.25-3.25s1.457-3.249,3.248-3.25
		c0.001,0,0.001,0.001,0.002,0.001s0.001-0.001,0.002-0.001c1.791,0.001,3.248,1.458,3.248,3.25S30.83,28.788,29.038,28.788z"/>
</g>
</svg>
