<?xml version="1.0" encoding="utf-8"?>
<!-- Generator: Adobe Illustrator 16.0.0, SVG Export Plug-In . SVG Version: 6.00 Build 0)  -->
<!DOCTYPE svg PUBLIC "-//W3C//DTD SVG 1.0//EN" "http://www.w3.org/TR/2001/REC-SVG-20010904/DTD/svg10.dtd">
<svg version="1.0" id="Layer_1" xmlns="http://www.w3.org/2000/svg" xmlns:xlink="http://www.w3.org/1999/xlink" x="0px" y="0px"
	 width="102.073px" height="59.834px" viewBox="0 0 102.073 59.834" enable-background="new 0 0 102.073 59.834"
	 xml:space="preserve">
<g>
	<polygon fill="none" points="67.073,56.264 72.239,56.264 69.663,50.594 	"/>
	<path fill="none" d="M34.941,18.75l15.732,15.733L66.406,18.75L50.674,3.018L34.941,18.75z M60.183,17.866
		c0.488,0.488,0.488,1.279,0,1.768l-8.625,8.625c-0.234,0.234-0.552,0.366-0.884,0.366s-0.649-0.132-0.884-0.366l-8.626-8.625
		c-0.234-0.234-0.366-0.552-0.366-0.884s0.132-0.649,0.366-0.884L49.79,9.24c0.234-0.234,0.552-0.366,0.884-0.366
		s0.649,0.132,0.884,0.366L60.183,17.866z"/>
	
		<rect x="45.824" y="13.901" transform="matrix(-0.7071 -0.7071 0.7071 -0.7071 73.2483 67.8389)" fill="none" width="9.699" height="9.698"/>
	<path fill="none" d="M59.85,52.68c0-0.662-0.247-1.186-0.742-1.568c-0.494-0.382-1.185-0.573-2.071-0.573h-3.347v4.41h3.305
		c0.84,0,1.525-0.203,2.058-0.609C59.584,53.934,59.85,53.38,59.85,52.68z"/>
	<path fill="none" d="M100.12,51.645c-0.798-0.859-1.794-1.289-2.989-1.289c-1.194,0-2.186,0.426-2.975,1.274
		c-0.789,0.85-1.183,1.896-1.183,3.136c0,1.223,0.398,2.264,1.196,3.123c0.799,0.858,1.795,1.287,2.989,1.287
		s2.187-0.424,2.976-1.273c0.788-0.85,1.183-1.895,1.183-3.137C101.317,53.543,100.918,52.503,100.12,51.645z"/>
	<path fill="none" d="M82.445,50.539h-2.534v8.456h2.534c1.335,0,2.41-0.401,3.228-1.204c0.816-0.803,1.225-1.811,1.225-3.024
		c0-1.194-0.408-2.197-1.225-3.01C84.855,50.944,83.78,50.539,82.445,50.539z"/>
	<path d="M69.058,17.866l-17.5-17.5c-0.488-0.488-1.279-0.488-1.768,0l-17.5,17.5c-0.488,0.488-0.488,1.279,0,1.768l17.5,17.5
		c0.244,0.244,0.564,0.367,0.884,0.367s0.64-0.123,0.884-0.367l17.5-17.5C69.546,19.146,69.546,18.354,69.058,17.866z
		 M50.674,34.483L34.941,18.75L50.674,3.018L66.406,18.75L50.674,34.483z"/>
	<path d="M39.225,29.033c-0.488-0.488-1.279-0.488-1.768,0c-0.488,0.488-0.488,1.279,0,1.768l9.333,9.333
		c0.244,0.244,0.564,0.367,0.884,0.367s0.64-0.123,0.884-0.367c0.488-0.487,0.488-1.279,0-1.768L39.225,29.033z"/>
	<path d="M49.79,9.24l-8.626,8.626c-0.234,0.234-0.366,0.552-0.366,0.884s0.132,0.649,0.366,0.884l8.626,8.625
		c0.234,0.234,0.552,0.366,0.884,0.366s0.649-0.132,0.884-0.366l8.625-8.625c0.488-0.488,0.488-1.279,0-1.768L51.558,9.24
		c-0.234-0.234-0.552-0.366-0.884-0.366S50.024,9.006,49.79,9.24z M57.531,18.75l-6.857,6.858l-6.858-6.858l6.858-6.858
		L57.531,18.75z"/>
	<path fill="#808C99" d="M3.976,54.403c-1.11-0.225-1.864-0.5-2.261-0.826C1.318,53.25,1.12,52.811,1.12,52.26
		c0-0.531,0.222-0.978,0.665-1.337c0.443-0.358,1.02-0.539,1.729-0.539c1.102,0,2.077,0.369,2.926,1.106l0.462-0.574
		c-0.514-0.41-1.029-0.711-1.547-0.902s-1.123-0.287-1.813-0.287c-0.906,0-1.657,0.247-2.254,0.741
		c-0.597,0.495-0.896,1.106-0.896,1.835c0,0.756,0.257,1.348,0.77,1.777s1.358,0.766,2.534,1.008
		c1.073,0.215,1.804,0.48,2.191,0.799c0.387,0.316,0.581,0.746,0.581,1.287c0,0.579-0.231,1.053-0.693,1.422
		c-0.462,0.368-1.057,0.553-1.785,0.553c-0.709,0-1.335-0.115-1.876-0.344c-0.542-0.229-1.087-0.6-1.638-1.113L0,58.239
		c1.167,1.045,2.482,1.568,3.948,1.568c0.952,0,1.731-0.25,2.338-0.75c0.607-0.499,0.91-1.141,0.91-1.925
		c0-0.728-0.254-1.307-0.763-1.735C5.924,54.967,5.105,54.635,3.976,54.403z"/>
	<rect x="12.208" y="49.867" fill="#808C99" width="0.728" height="9.8"/>
	<polygon fill="#808C99" points="19.194,49.867 18.466,49.867 18.466,59.667 24.948,59.667 24.948,58.995 19.194,58.995 	"/>
	<polygon fill="#808C99" points="31.85,58.882 28.014,49.867 27.202,49.867 31.514,59.737 32.157,59.737 36.469,49.867 
		35.699,49.867 	"/>
	<polygon fill="#808C99" points="41.79,55.061 47.403,55.061 47.403,54.389 41.79,54.389 41.79,50.539 48.034,50.539 48.034,49.867 
		41.062,49.867 41.062,59.667 48.104,59.667 48.104,58.995 41.79,58.995 	"/>
	<path fill="#808C99" d="M59.794,54.584c0.522-0.477,0.784-1.11,0.784-1.904c0-0.736-0.248-1.354-0.742-1.848
		c-0.645-0.645-1.563-0.966-2.758-0.966h-4.116v9.8h0.728v-4.061h3.206l3.122,4.061h0.924l-3.233-4.186
		C58.576,55.36,59.271,55.061,59.794,54.584z M53.689,54.949v-4.41h3.347c0.887,0,1.577,0.191,2.071,0.573
		c0.495,0.383,0.742,0.906,0.742,1.568c0,0.7-0.266,1.254-0.798,1.659c-0.532,0.406-1.218,0.609-2.058,0.609H53.689z"/>
	<path fill="#808C99" d="M69.327,49.796l-4.563,9.87h0.756l1.246-2.744h5.782l1.246,2.744h0.798l-4.564-9.87H69.327z M67.073,56.264
		l2.59-5.67l2.576,5.67H67.073z"/>
	<path fill="#808C99" d="M82.445,49.867h-3.262v9.8h3.262c1.521,0,2.77-0.467,3.745-1.4c0.976-0.933,1.463-2.1,1.463-3.5
		c0-1.408-0.485-2.578-1.456-3.507S83.977,49.867,82.445,49.867z M85.673,57.791c-0.817,0.803-1.893,1.204-3.228,1.204h-2.534
		v-8.456h2.534c1.335,0,2.41,0.405,3.228,1.218c0.816,0.812,1.225,1.815,1.225,3.01C86.897,55.98,86.489,56.988,85.673,57.791z"/>
	<path fill="#808C99" d="M100.701,51.19c-0.915-0.994-2.096-1.491-3.542-1.491s-2.632,0.499-3.556,1.497
		c-0.924,1-1.386,2.189-1.386,3.57c0,1.391,0.457,2.584,1.371,3.577c0.915,0.994,2.096,1.491,3.542,1.491
		c1.447,0,2.633-0.499,3.557-1.498c0.924-0.998,1.386-2.188,1.386-3.57C102.073,53.375,101.616,52.184,100.701,51.19z
		 M100.135,57.903c-0.789,0.85-1.781,1.273-2.976,1.273s-2.19-0.429-2.989-1.287c-0.798-0.859-1.196-1.9-1.196-3.123
		c0-1.24,0.394-2.286,1.183-3.136c0.789-0.849,1.78-1.274,2.975-1.274c1.195,0,2.191,0.43,2.989,1.289
		c0.798,0.858,1.197,1.898,1.197,3.121C101.317,56.008,100.923,57.053,100.135,57.903z"/>
</g>
</svg>
