<?xml version="1.0" encoding="UTF-8" standalone="no"?>
<!-- Generator: Adobe Illustrator 18.0.0, SVG Export Plug-In . SVG Version: 6.00 Build 0)  -->

<svg
   xmlns:dc="http://purl.org/dc/elements/1.1/"
   xmlns:cc="http://creativecommons.org/ns#"
   xmlns:rdf="http://www.w3.org/1999/02/22-rdf-syntax-ns#"
   xmlns:svg="http://www.w3.org/2000/svg"
   xmlns="http://www.w3.org/2000/svg"
   xmlns:sodipodi="http://sodipodi.sourceforge.net/DTD/sodipodi-0.dtd"
   xmlns:inkscape="http://www.inkscape.org/namespaces/inkscape"
   version="1.1"
   id="Capa_1"
   x="0px"
   y="0px"
   viewBox="0 0 192.906 192.906"
   style="enable-background:new 0 0 192.906 192.906;"
   xml:space="preserve"
   sodipodi:docname="search-m.svg"
   inkscape:version="0.92.1 r15371"><metadata
   id="metadata4548"><rdf:RDF><cc:Work
       rdf:about=""><dc:format>image/svg+xml</dc:format><dc:type
         rdf:resource="http://purl.org/dc/dcmitype/StillImage" /><dc:title></dc:title></cc:Work></rdf:RDF></metadata><defs
   id="defs4546" /><sodipodi:namedview
   pagecolor="#ffffff"
   bordercolor="#666666"
   borderopacity="1"
   objecttolerance="10"
   gridtolerance="10"
   guidetolerance="10"
   inkscape:pageopacity="0"
   inkscape:pageshadow="2"
   inkscape:window-width="1366"
   inkscape:window-height="715"
   id="namedview4544"
   showgrid="false"
   inkscape:zoom="2.8459456"
   inkscape:cx="36.894591"
   inkscape:cy="37.07028"
   inkscape:window-x="-8"
   inkscape:window-y="-8"
   inkscape:window-maximized="1"
   inkscape:current-layer="Capa_1" />
<g
   id="g4511"
   style="fill:#ffffff;fill-opacity:1">
	<path
   d="M190.709,180.102l-47.08-47.076c11.702-14.072,18.752-32.142,18.752-51.831c0-44.77-36.421-81.193-81.188-81.193   C36.423,0.001,0,36.424,0,81.194c0,44.767,36.423,81.188,81.193,81.188c19.688,0,37.758-7.049,51.829-18.75l47.081,47.077   c1.464,1.464,3.384,2.196,5.303,2.196c1.919,0,3.839-0.732,5.304-2.197C193.639,187.779,193.639,183.031,190.709,180.102z    M15,81.194c0-36.499,29.694-66.193,66.193-66.193c36.496,0,66.188,29.694,66.188,66.193c0,36.496-29.691,66.188-66.188,66.188   C44.694,147.382,15,117.69,15,81.194z"
   id="path4507"
   style="fill:#ffffff;fill-opacity:1" />
	
</g>
<g
   id="g4513">
</g>
<g
   id="g4515">
</g>
<g
   id="g4517">
</g>
<g
   id="g4519">
</g>
<g
   id="g4521">
</g>
<g
   id="g4523">
</g>
<g
   id="g4525">
</g>
<g
   id="g4527">
</g>
<g
   id="g4529">
</g>
<g
   id="g4531">
</g>
<g
   id="g4533">
</g>
<g
   id="g4535">
</g>
<g
   id="g4537">
</g>
<g
   id="g4539">
</g>
<g
   id="g4541">
</g>
</svg>