<?xml version="1.0" encoding="utf-8"?>
<!-- Generator: Adobe Illustrator 16.0.0, SVG Export Plug-In . SVG Version: 6.00 Build 0)  -->
<!DOCTYPE svg PUBLIC "-//W3C//DTD SVG 1.0//EN" "http://www.w3.org/TR/2001/REC-SVG-20010904/DTD/svg10.dtd">
<svg version="1.0" id="Layer_1" xmlns="http://www.w3.org/2000/svg" xmlns:xlink="http://www.w3.org/1999/xlink" x="0px" y="0px"
	 width="32.932px" height="32.692px" viewBox="0 0 32.932 32.692" enable-background="new 0 0 32.932 32.692" xml:space="preserve">
<path d="M32.713,31.412l-9.266-9.266c2.051-2.351,3.303-5.414,3.303-8.771C26.75,6,20.75,0,13.375,0S0,6,0,13.375
	C0,20.75,6,26.75,13.375,26.75c3.479,0,6.643-1.346,9.023-3.531l9.254,9.254c0.146,0.146,0.338,0.22,0.529,0.22
	c0.193,0,0.385-0.073,0.531-0.22C33.006,32.179,33.006,31.705,32.713,31.412z M1.5,13.375C1.5,6.827,6.827,1.5,13.375,1.5
	c6.547,0,11.875,5.327,11.875,11.875c0,6.549-5.328,11.875-11.875,11.875C6.827,25.25,1.5,19.923,1.5,13.375z"/>
</svg>
