<?xml version="1.0" encoding="utf-8"?>
<!-- Generator: Adobe Illustrator 16.0.0, SVG Export Plug-In . SVG Version: 6.00 Build 0)  -->
<!DOCTYPE svg PUBLIC "-//W3C//DTD SVG 1.0//EN" "http://www.w3.org/TR/2001/REC-SVG-20010904/DTD/svg10.dtd">
<svg version="1.0" id="Layer_3" xmlns="http://www.w3.org/2000/svg" xmlns:xlink="http://www.w3.org/1999/xlink" x="0px" y="0px"
	 width="130.882px" height="63.5px" viewBox="0.363 6.75 130.882 63.5" enable-background="new 0.363 6.75 130.882 63.5"
	 xml:space="preserve">
<g>
	<path d="M80.831,22.275H38.42c-1,0-1.811,0.811-1.811,1.811c0,1,0.811,1.812,1.811,1.812h42.412c1.001,0,1.812-0.811,1.812-1.812
		C82.643,23.086,81.832,22.275,80.831,22.275z"/>
	<path d="M80.831,50.197H38.42c-1,0-1.811,0.812-1.811,1.812s0.811,1.812,1.811,1.812h42.412c1.001,0,1.812-0.812,1.812-1.812
		S81.832,50.197,80.831,50.197z"/>
	<path d="M80.831,36.463H38.42c-1,0-1.811,0.811-1.811,1.811s0.811,1.812,1.811,1.812h42.412c1.001,0,1.812-0.812,1.812-1.812
		S81.832,36.463,80.831,36.463z"/>
	<path d="M16.989,52.736V24.992c0-1-0.811-1.811-1.811-1.811c-1,0-1.811,0.811-1.811,1.811v27.752L3.016,41.605l-2.653,2.472
		l14.812,15.931l14.815-15.931l-2.653-2.472L16.989,52.736z"/>
	<path d="M104.073,16.993L89.262,32.924l2.653,2.471l10.351-11.138v27.752c0,1,0.812,1.812,1.812,1.812s1.812-0.812,1.812-1.812
		V24.263l10.347,11.131l2.653-2.471L104.073,16.993z"/>
</g>
</svg>
